<svg width="25" height="23" viewBox="0 0 25 23" fill="none" xmlns="http://www.w3.org/2000/svg">
<path id="Shape" fill-rule="evenodd" clip-rule="evenodd" d="M24.9738 3.56544C24.7366 1.54267 22.9514 0 20.8181 0H4.18988L3.96226 0.00593051L3.72694 0.0247018C1.62619 0.248736 0 1.94653 0 4.00378V15.2533L0.00632271 15.4728L0.0257744 15.6987L0.058777 15.922L0.104211 16.1408C0.533589 17.9453 2.21907 19.257 4.18988 19.257L5.28415 19.2566L5.28609 21.7692L5.29562 21.9187L5.32543 22.0719C5.41431 22.4206 5.63604 22.7061 5.93987 22.867C6.13576 22.9587 6.30464 23 6.4837 23L6.64398 22.9883L6.82251 22.9492L6.95169 22.9015L7.06662 22.845L7.17161 22.7787L11.9012 19.2642L20.818 19.2651L21.0446 19.2592L21.2789 19.2403C23.3716 19.0157 25 17.3139 25 15.2613V4.01187L24.9937 3.79212L24.9738 3.56544ZM4.29468 2.58513H20.7133C21.7096 2.58513 22.5 3.29143 22.5 4.12708V15.1321L22.4928 15.2752L22.4708 15.4174C22.322 16.1192 21.5943 16.6741 20.7133 16.6741H11.5158L11.3555 16.6857L11.2088 16.7166C11.0676 16.7546 10.9425 16.8145 10.8279 16.8953L7.68049 19.2346L7.6813 17.9051L7.67234 17.7595L7.64573 17.618C7.5103 17.0651 7.03442 16.6741 6.4837 16.6741H4.29468L4.12329 16.6674L3.95343 16.6472C3.11799 16.512 2.5 15.8695 2.5 15.1321V4.12708L2.50729 3.98437L2.52934 3.84244C2.6791 3.14176 3.41176 2.58513 4.29468 2.58513ZM12.5 10.8551C13.157 10.8551 13.6976 11.4084 13.6976 12.086C13.6976 12.6544 13.3152 13.1422 12.7781 13.2806L12.6407 13.3078L12.5 13.3169H6.16621C5.50924 13.3169 4.96861 12.7636 4.96861 12.086C4.96861 11.5176 5.35102 11.0297 5.88814 10.8913L6.02551 10.8642L6.16621 10.8551H12.5ZM20.0314 6.96554C20.0314 6.28543 19.4884 5.73462 18.8259 5.73462H6.16621L6.02551 5.74374L5.88814 5.7709C5.35102 5.90931 4.96861 6.39714 4.96861 6.96554C4.96861 7.64315 5.50924 8.19646 6.16621 8.19646H18.8338L18.9745 8.18734L19.1119 8.16017C19.649 8.02177 20.0314 7.53394 20.0314 6.96554Z" fill="url(#paint0_linear_676_329)"/>
<defs>
<linearGradient id="paint0_linear_676_329" x1="5.71084" y1="-5.46135" x2="-4.63036" y2="18.2077" gradientUnits="userSpaceOnUse">
<stop stop-color="#D22E48"/>
<stop offset="0.439722" stop-color="#6E41A0"/>
<stop offset="0.533417" stop-color="#9D96A6"/>
<stop offset="1" stop-color="#CCCCCC"/>
</linearGradient>
</defs>
</svg>
